<mxfile host="app.diagrams.net" modified="2023-08-22T16:57:26.435Z" agent="Mozilla/5.0 (Windows NT 10.0; Win64; x64) AppleWebKit/537.36 (KHTML, like Gecko) Chrome/115.0.0.0 Safari/537.36" etag="TwtADpSiTkhIP7o7wqaS" version="21.6.9" type="device">
  <diagram name="PÃ¡gina-1" id="A6Nziyx6I6ZekGtQeBus">
    <mxGraphModel dx="1050" dy="1743" grid="1" gridSize="10" guides="1" tooltips="1" connect="1" arrows="1" fold="1" page="1" pageScale="1" pageWidth="827" pageHeight="1169" math="0" shadow="0">
      <root>
        <mxCell id="0" />
        <mxCell id="1" parent="0" />
        <mxCell id="XNwFwsFVzcUq8IYY0MSn-47" style="edgeStyle=orthogonalEdgeStyle;rounded=0;orthogonalLoop=1;jettySize=auto;html=1;entryX=0.566;entryY=1;entryDx=0;entryDy=0;endArrow=diamondThin;endFill=1;entryPerimeter=0;" parent="1" source="XNwFwsFVzcUq8IYY0MSn-13" edge="1">
          <mxGeometry relative="1" as="geometry">
            <mxPoint x="530.56" y="-44" as="targetPoint" />
          </mxGeometry>
        </mxCell>
        <mxCell id="XNwFwsFVzcUq8IYY0MSn-13" value="Curso" style="swimlane;fontStyle=1;align=center;verticalAlign=top;childLayout=stackLayout;horizontal=1;startSize=26;horizontalStack=0;resizeParent=1;resizeParentMax=0;resizeLast=0;collapsible=1;marginBottom=0;whiteSpace=wrap;html=1;swimlaneFillColor=default;" parent="1" vertex="1">
          <mxGeometry x="262" y="192" width="180" height="88" as="geometry" />
        </mxCell>
        <mxCell id="XNwFwsFVzcUq8IYY0MSn-14" value="- nome: String&lt;br&gt;- creditos: Int&lt;br&gt;-&amp;nbsp; disciplinas: List&amp;lt;Disciplina&amp;gt;" style="text;strokeColor=none;fillColor=none;align=left;verticalAlign=top;spacingLeft=4;spacingRight=4;overflow=hidden;rotatable=0;points=[[0,0.5],[1,0.5]];portConstraint=eastwest;whiteSpace=wrap;html=1;swimlaneFillColor=default;" parent="XNwFwsFVzcUq8IYY0MSn-13" vertex="1">
          <mxGeometry y="26" width="180" height="54" as="geometry" />
        </mxCell>
        <mxCell id="XNwFwsFVzcUq8IYY0MSn-15" value="" style="line;strokeWidth=1;fillColor=none;align=left;verticalAlign=middle;spacingTop=-1;spacingLeft=3;spacingRight=3;rotatable=0;labelPosition=right;points=[];portConstraint=eastwest;strokeColor=inherit;swimlaneFillColor=default;" parent="XNwFwsFVzcUq8IYY0MSn-13" vertex="1">
          <mxGeometry y="80" width="180" height="8" as="geometry" />
        </mxCell>
        <mxCell id="XNwFwsFVzcUq8IYY0MSn-82" style="edgeStyle=orthogonalEdgeStyle;rounded=0;orthogonalLoop=1;jettySize=auto;html=1;entryX=0.322;entryY=1;entryDx=0;entryDy=0;entryPerimeter=0;endArrow=diamond;endFill=0;" parent="1" source="XNwFwsFVzcUq8IYY0MSn-17" target="XNwFwsFVzcUq8IYY0MSn-15" edge="1">
          <mxGeometry relative="1" as="geometry">
            <mxPoint x="328.78" y="306.59799999999996" as="targetPoint" />
          </mxGeometry>
        </mxCell>
        <mxCell id="XNwFwsFVzcUq8IYY0MSn-17" value="Disciplina" style="swimlane;fontStyle=1;align=center;verticalAlign=top;childLayout=stackLayout;horizontal=1;startSize=26;horizontalStack=0;resizeParent=1;resizeParentMax=0;resizeLast=0;collapsible=1;marginBottom=0;whiteSpace=wrap;html=1;" parent="1" vertex="1">
          <mxGeometry x="282" y="472" width="160" height="60" as="geometry" />
        </mxCell>
        <mxCell id="XNwFwsFVzcUq8IYY0MSn-18" value="- nome : String" style="text;strokeColor=none;fillColor=none;align=left;verticalAlign=top;spacingLeft=4;spacingRight=4;overflow=hidden;rotatable=0;points=[[0,0.5],[1,0.5]];portConstraint=eastwest;whiteSpace=wrap;html=1;" parent="XNwFwsFVzcUq8IYY0MSn-17" vertex="1">
          <mxGeometry y="26" width="160" height="26" as="geometry" />
        </mxCell>
        <mxCell id="XNwFwsFVzcUq8IYY0MSn-19" value="" style="line;strokeWidth=1;fillColor=none;align=left;verticalAlign=middle;spacingTop=-1;spacingLeft=3;spacingRight=3;rotatable=0;labelPosition=right;points=[];portConstraint=eastwest;strokeColor=inherit;" parent="XNwFwsFVzcUq8IYY0MSn-17" vertex="1">
          <mxGeometry y="52" width="160" height="8" as="geometry" />
        </mxCell>
        <mxCell id="XNwFwsFVzcUq8IYY0MSn-39" value="Turma" style="swimlane;fontStyle=1;align=center;verticalAlign=top;childLayout=stackLayout;horizontal=1;startSize=26;horizontalStack=0;resizeParent=1;resizeParentMax=0;resizeLast=0;collapsible=1;marginBottom=0;whiteSpace=wrap;html=1;" parent="1" vertex="1">
          <mxGeometry x="635" y="172" width="230" height="150" as="geometry" />
        </mxCell>
        <mxCell id="XNwFwsFVzcUq8IYY0MSn-40" value="-&amp;nbsp; maxAlunos: int&lt;br&gt;- professor : Professor&lt;br&gt;- disciplina : Disciplina&lt;br&gt;- listAlunos : List&amp;lt;Alunos&amp;gt;" style="text;strokeColor=none;fillColor=none;align=left;verticalAlign=top;spacingLeft=4;spacingRight=4;overflow=hidden;rotatable=0;points=[[0,0.5],[1,0.5]];portConstraint=eastwest;whiteSpace=wrap;html=1;" parent="XNwFwsFVzcUq8IYY0MSn-39" vertex="1">
          <mxGeometry y="26" width="230" height="64" as="geometry" />
        </mxCell>
        <mxCell id="XNwFwsFVzcUq8IYY0MSn-41" value="" style="line;strokeWidth=1;fillColor=none;align=left;verticalAlign=middle;spacingTop=-1;spacingLeft=3;spacingRight=3;rotatable=0;labelPosition=right;points=[];portConstraint=eastwest;strokeColor=inherit;" parent="XNwFwsFVzcUq8IYY0MSn-39" vertex="1">
          <mxGeometry y="90" width="230" height="8" as="geometry" />
        </mxCell>
        <mxCell id="XNwFwsFVzcUq8IYY0MSn-42" value="+ adicionarProf(Professor p) : Void&lt;br&gt;+adicionarAluno(Aluno a): void&lt;br&gt;" style="text;strokeColor=none;fillColor=none;align=left;verticalAlign=top;spacingLeft=4;spacingRight=4;overflow=hidden;rotatable=0;points=[[0,0.5],[1,0.5]];portConstraint=eastwest;whiteSpace=wrap;html=1;" parent="XNwFwsFVzcUq8IYY0MSn-39" vertex="1">
          <mxGeometry y="98" width="230" height="52" as="geometry" />
        </mxCell>
        <mxCell id="XNwFwsFVzcUq8IYY0MSn-43" value="Universidade" style="swimlane;fontStyle=1;align=center;verticalAlign=top;childLayout=stackLayout;horizontal=1;startSize=26;horizontalStack=0;resizeParent=1;resizeParentMax=0;resizeLast=0;collapsible=1;marginBottom=0;whiteSpace=wrap;html=1;" parent="1" vertex="1">
          <mxGeometry x="450" y="-102" width="160" height="60" as="geometry" />
        </mxCell>
        <mxCell id="XNwFwsFVzcUq8IYY0MSn-44" value="- nomeUni: String" style="text;strokeColor=none;fillColor=none;align=left;verticalAlign=top;spacingLeft=4;spacingRight=4;overflow=hidden;rotatable=0;points=[[0,0.5],[1,0.5]];portConstraint=eastwest;whiteSpace=wrap;html=1;" parent="XNwFwsFVzcUq8IYY0MSn-43" vertex="1">
          <mxGeometry y="26" width="160" height="26" as="geometry" />
        </mxCell>
        <mxCell id="XNwFwsFVzcUq8IYY0MSn-45" value="" style="line;strokeWidth=1;fillColor=none;align=left;verticalAlign=middle;spacingTop=-1;spacingLeft=3;spacingRight=3;rotatable=0;labelPosition=right;points=[];portConstraint=eastwest;strokeColor=inherit;" parent="XNwFwsFVzcUq8IYY0MSn-43" vertex="1">
          <mxGeometry y="52" width="160" height="8" as="geometry" />
        </mxCell>
        <mxCell id="XNwFwsFVzcUq8IYY0MSn-48" value="1" style="text;html=1;align=center;verticalAlign=middle;resizable=0;points=[];autosize=1;strokeColor=none;fillColor=none;" parent="1" vertex="1">
          <mxGeometry x="230" y="-20" width="30" height="30" as="geometry" />
        </mxCell>
        <mxCell id="XNwFwsFVzcUq8IYY0MSn-49" value="n" style="text;html=1;align=center;verticalAlign=middle;resizable=0;points=[];autosize=1;strokeColor=none;fillColor=none;" parent="1" vertex="1">
          <mxGeometry x="360" y="150" width="30" height="30" as="geometry" />
        </mxCell>
        <mxCell id="XNwFwsFVzcUq8IYY0MSn-51" value="n" style="text;html=1;align=center;verticalAlign=middle;resizable=0;points=[];autosize=1;strokeColor=none;fillColor=none;" parent="1" vertex="1">
          <mxGeometry x="320" y="288" width="30" height="30" as="geometry" />
        </mxCell>
        <mxCell id="XNwFwsFVzcUq8IYY0MSn-52" value="n" style="text;html=1;align=center;verticalAlign=middle;resizable=0;points=[];autosize=1;strokeColor=none;fillColor=none;" parent="1" vertex="1">
          <mxGeometry x="360" y="430" width="30" height="30" as="geometry" />
        </mxCell>
        <mxCell id="XNwFwsFVzcUq8IYY0MSn-53" style="edgeStyle=orthogonalEdgeStyle;rounded=0;orthogonalLoop=1;jettySize=auto;html=1;entryX=0;entryY=0.734;entryDx=0;entryDy=0;entryPerimeter=0;endArrow=none;endFill=0;" parent="1" source="XNwFwsFVzcUq8IYY0MSn-14" target="XNwFwsFVzcUq8IYY0MSn-40" edge="1">
          <mxGeometry relative="1" as="geometry">
            <mxPoint x="605" y="245" as="targetPoint" />
          </mxGeometry>
        </mxCell>
        <mxCell id="XNwFwsFVzcUq8IYY0MSn-54" value="1" style="text;html=1;align=center;verticalAlign=middle;resizable=0;points=[];autosize=1;strokeColor=none;fillColor=none;" parent="1" vertex="1">
          <mxGeometry x="442" y="220" width="30" height="30" as="geometry" />
        </mxCell>
        <mxCell id="XNwFwsFVzcUq8IYY0MSn-55" value="n" style="text;html=1;align=center;verticalAlign=middle;resizable=0;points=[];autosize=1;strokeColor=none;fillColor=none;" parent="1" vertex="1">
          <mxGeometry x="610" y="220" width="30" height="30" as="geometry" />
        </mxCell>
        <mxCell id="XNwFwsFVzcUq8IYY0MSn-56" style="edgeStyle=orthogonalEdgeStyle;rounded=0;orthogonalLoop=1;jettySize=auto;html=1;entryX=0.535;entryY=0.962;entryDx=0;entryDy=0;entryPerimeter=0;endArrow=block;endFill=0;" parent="1" source="XNwFwsFVzcUq8IYY0MSn-57" target="XNwFwsFVzcUq8IYY0MSn-74" edge="1">
          <mxGeometry relative="1" as="geometry" />
        </mxCell>
        <mxCell id="XNwFwsFVzcUq8IYY0MSn-57" value="Professor" style="swimlane;fontStyle=1;align=center;verticalAlign=top;childLayout=stackLayout;horizontal=1;startSize=26;horizontalStack=0;resizeParent=1;resizeParentMax=0;resizeLast=0;collapsible=1;marginBottom=0;whiteSpace=wrap;html=1;" parent="1" vertex="1">
          <mxGeometry x="1380" y="270" width="250" height="90" as="geometry" />
        </mxCell>
        <mxCell id="XNwFwsFVzcUq8IYY0MSn-59" value="" style="line;strokeWidth=1;fillColor=none;align=left;verticalAlign=middle;spacingTop=-1;spacingLeft=3;spacingRight=3;rotatable=0;labelPosition=right;points=[];portConstraint=eastwest;strokeColor=inherit;" parent="XNwFwsFVzcUq8IYY0MSn-57" vertex="1">
          <mxGeometry y="26" width="250" height="8" as="geometry" />
        </mxCell>
        <mxCell id="XNwFwsFVzcUq8IYY0MSn-60" value="+ VerificarMatriculados(List&amp;lt;alunos&amp;gt; a): void" style="text;strokeColor=none;fillColor=none;align=left;verticalAlign=top;spacingLeft=4;spacingRight=4;overflow=hidden;rotatable=0;points=[[0,0.5],[1,0.5]];portConstraint=eastwest;whiteSpace=wrap;html=1;" parent="XNwFwsFVzcUq8IYY0MSn-57" vertex="1">
          <mxGeometry y="34" width="250" height="56" as="geometry" />
        </mxCell>
        <mxCell id="XNwFwsFVzcUq8IYY0MSn-61" value="" style="edgeStyle=orthogonalEdgeStyle;rounded=0;orthogonalLoop=1;jettySize=auto;html=1;endArrow=block;endFill=0;" parent="1" source="XNwFwsFVzcUq8IYY0MSn-62" target="XNwFwsFVzcUq8IYY0MSn-74" edge="1">
          <mxGeometry relative="1" as="geometry">
            <Array as="points">
              <mxPoint x="1240" y="170" />
              <mxPoint x="1420" y="170" />
            </Array>
          </mxGeometry>
        </mxCell>
        <mxCell id="XNwFwsFVzcUq8IYY0MSn-62" value="Aluno" style="swimlane;fontStyle=1;align=center;verticalAlign=top;childLayout=stackLayout;horizontal=1;startSize=26;horizontalStack=0;resizeParent=1;resizeParentMax=0;resizeLast=0;collapsible=1;marginBottom=0;whiteSpace=wrap;html=1;" parent="1" vertex="1">
          <mxGeometry x="1160" y="270" width="160" height="60" as="geometry" />
        </mxCell>
        <mxCell id="XNwFwsFVzcUq8IYY0MSn-63" value="-" style="text;strokeColor=none;fillColor=none;align=left;verticalAlign=top;spacingLeft=4;spacingRight=4;overflow=hidden;rotatable=0;points=[[0,0.5],[1,0.5]];portConstraint=eastwest;whiteSpace=wrap;html=1;" parent="XNwFwsFVzcUq8IYY0MSn-62" vertex="1">
          <mxGeometry y="26" width="160" height="26" as="geometry" />
        </mxCell>
        <mxCell id="XNwFwsFVzcUq8IYY0MSn-64" value="" style="line;strokeWidth=1;fillColor=none;align=left;verticalAlign=middle;spacingTop=-1;spacingLeft=3;spacingRight=3;rotatable=0;labelPosition=right;points=[];portConstraint=eastwest;strokeColor=inherit;" parent="XNwFwsFVzcUq8IYY0MSn-62" vertex="1">
          <mxGeometry y="52" width="160" height="8" as="geometry" />
        </mxCell>
        <mxCell id="XNwFwsFVzcUq8IYY0MSn-66" style="edgeStyle=orthogonalEdgeStyle;rounded=0;orthogonalLoop=1;jettySize=auto;html=1;endArrow=block;endFill=0;exitX=0.5;exitY=0;exitDx=0;exitDy=0;" parent="1" source="XNwFwsFVzcUq8IYY0MSn-67" target="XNwFwsFVzcUq8IYY0MSn-74" edge="1">
          <mxGeometry relative="1" as="geometry">
            <Array as="points">
              <mxPoint x="1710" y="170" />
              <mxPoint x="1534" y="170" />
            </Array>
          </mxGeometry>
        </mxCell>
        <mxCell id="XNwFwsFVzcUq8IYY0MSn-67" value="Secratario" style="swimlane;fontStyle=1;align=center;verticalAlign=top;childLayout=stackLayout;horizontal=1;startSize=26;horizontalStack=0;resizeParent=1;resizeParentMax=0;resizeLast=0;collapsible=1;marginBottom=0;whiteSpace=wrap;html=1;" parent="1" vertex="1">
          <mxGeometry x="1660" y="262" width="200" height="114" as="geometry" />
        </mxCell>
        <mxCell id="XNwFwsFVzcUq8IYY0MSn-69" value="" style="line;strokeWidth=1;fillColor=none;align=left;verticalAlign=middle;spacingTop=-1;spacingLeft=3;spacingRight=3;rotatable=0;labelPosition=right;points=[];portConstraint=eastwest;strokeColor=inherit;" parent="XNwFwsFVzcUq8IYY0MSn-67" vertex="1">
          <mxGeometry y="26" width="200" height="8" as="geometry" />
        </mxCell>
        <mxCell id="XNwFwsFVzcUq8IYY0MSn-70" value="+ GerarCurriculo(): void&lt;br&gt;+ CadastrarDisciplinas(): void&lt;br&gt;+ GerenciarAluno() : void&lt;br&gt;+ Gerenciar Professor() : void" style="text;strokeColor=none;fillColor=none;align=left;verticalAlign=top;spacingLeft=4;spacingRight=4;overflow=hidden;rotatable=0;points=[[0,0.5],[1,0.5]];portConstraint=eastwest;whiteSpace=wrap;html=1;" parent="XNwFwsFVzcUq8IYY0MSn-67" vertex="1">
          <mxGeometry y="34" width="200" height="80" as="geometry" />
        </mxCell>
        <mxCell id="XNwFwsFVzcUq8IYY0MSn-71" value="Pessoa &amp;lt;&amp;lt;abstract&amp;gt;&amp;gt;" style="swimlane;fontStyle=1;align=center;verticalAlign=top;childLayout=stackLayout;horizontal=1;startSize=26;horizontalStack=0;resizeParent=1;resizeParentMax=0;resizeLast=0;collapsible=1;marginBottom=0;whiteSpace=wrap;html=1;" parent="1" vertex="1">
          <mxGeometry x="1384" y="-20" width="200" height="134" as="geometry" />
        </mxCell>
        <mxCell id="XNwFwsFVzcUq8IYY0MSn-72" value="- nome: String&lt;br&gt;- dataNascimento : Date&lt;br&gt;- cpf : String&lt;br&gt;- telefone: String" style="text;strokeColor=none;fillColor=none;align=left;verticalAlign=top;spacingLeft=4;spacingRight=4;overflow=hidden;rotatable=0;points=[[0,0.5],[1,0.5]];portConstraint=eastwest;whiteSpace=wrap;html=1;" parent="XNwFwsFVzcUq8IYY0MSn-71" vertex="1">
          <mxGeometry y="26" width="200" height="74" as="geometry" />
        </mxCell>
        <mxCell id="XNwFwsFVzcUq8IYY0MSn-73" value="" style="line;strokeWidth=1;fillColor=none;align=left;verticalAlign=middle;spacingTop=-1;spacingLeft=3;spacingRight=3;rotatable=0;labelPosition=right;points=[];portConstraint=eastwest;strokeColor=inherit;" parent="XNwFwsFVzcUq8IYY0MSn-71" vertex="1">
          <mxGeometry y="100" width="200" height="8" as="geometry" />
        </mxCell>
        <mxCell id="XNwFwsFVzcUq8IYY0MSn-74" value="+ method(type): type" style="text;strokeColor=none;fillColor=none;align=left;verticalAlign=top;spacingLeft=4;spacingRight=4;overflow=hidden;rotatable=0;points=[[0,0.5],[1,0.5]];portConstraint=eastwest;whiteSpace=wrap;html=1;" parent="XNwFwsFVzcUq8IYY0MSn-71" vertex="1">
          <mxGeometry y="108" width="200" height="26" as="geometry" />
        </mxCell>
        <mxCell id="XNwFwsFVzcUq8IYY0MSn-75" style="edgeStyle=orthogonalEdgeStyle;rounded=0;orthogonalLoop=1;jettySize=auto;html=1;entryX=0;entryY=0.5;entryDx=0;entryDy=0;endArrow=none;endFill=0;" parent="1" source="XNwFwsFVzcUq8IYY0MSn-40" target="XNwFwsFVzcUq8IYY0MSn-63" edge="1">
          <mxGeometry relative="1" as="geometry" />
        </mxCell>
        <mxCell id="XNwFwsFVzcUq8IYY0MSn-77" value="n" style="text;html=1;align=center;verticalAlign=middle;resizable=0;points=[];autosize=1;strokeColor=none;fillColor=none;" parent="1" vertex="1">
          <mxGeometry x="880" y="200" width="30" height="30" as="geometry" />
        </mxCell>
        <mxCell id="XNwFwsFVzcUq8IYY0MSn-78" value="n" style="text;html=1;align=center;verticalAlign=middle;resizable=0;points=[];autosize=1;strokeColor=none;fillColor=none;" parent="1" vertex="1">
          <mxGeometry x="1115" y="278" width="30" height="30" as="geometry" />
        </mxCell>
        <mxCell id="XNwFwsFVzcUq8IYY0MSn-79" style="edgeStyle=orthogonalEdgeStyle;rounded=0;orthogonalLoop=1;jettySize=auto;html=1;entryX=0.553;entryY=1.002;entryDx=0;entryDy=0;entryPerimeter=0;endArrow=none;endFill=0;" parent="1" source="XNwFwsFVzcUq8IYY0MSn-42" target="XNwFwsFVzcUq8IYY0MSn-60" edge="1">
          <mxGeometry relative="1" as="geometry">
            <Array as="points">
              <mxPoint x="750" y="440" />
              <mxPoint x="1469" y="440" />
            </Array>
          </mxGeometry>
        </mxCell>
        <mxCell id="XNwFwsFVzcUq8IYY0MSn-80" value="1" style="text;html=1;align=center;verticalAlign=middle;resizable=0;points=[];autosize=1;strokeColor=none;fillColor=none;" parent="1" vertex="1">
          <mxGeometry x="1469" y="356" width="30" height="30" as="geometry" />
        </mxCell>
        <mxCell id="XNwFwsFVzcUq8IYY0MSn-81" value="n" style="text;html=1;align=center;verticalAlign=middle;resizable=0;points=[];autosize=1;strokeColor=none;fillColor=none;" parent="1" vertex="1">
          <mxGeometry x="745" y="318" width="30" height="30" as="geometry" />
        </mxCell>
        <mxCell id="XNwFwsFVzcUq8IYY0MSn-83" value="1" style="text;html=1;align=center;verticalAlign=middle;resizable=0;points=[];autosize=1;strokeColor=none;fillColor=none;" parent="1" vertex="1">
          <mxGeometry x="535" y="-42" width="30" height="30" as="geometry" />
        </mxCell>
      </root>
    </mxGraphModel>
  </diagram>
</mxfile>
